<svg width="215" height="35" viewBox="0 0 1831 299" fill="none" xmlns="http://www.w3.org/2000/svg">
<path d="M165.805 0.0119644C164.459 -0.0358956 163.014 0.0505939 161.465 0.426027C158.367 1.17689 155.996 2.58894 152.586 4.68775C146.244 8.59066 140.439 14.1233 127.746 22.9104L127.742 22.9124L127.738 22.9144C121.798 27.0383 115.375 30.755 108.758 34.5863L108.834 34.7171C106.625 35.7097 104.399 36.8001 102.158 38.1449C93.4281 43.3828 85.9847 49.2851 80.9139 54.8324C73.562 51.6497 64.4803 47.9811 54.7891 44.6624C42.8046 40.5583 31.5205 37.0764 22.5156 37.0764H5.42578L16.9961 49.6545C22.754 55.9131 31.4335 65.3181 38.7871 73.2229C41.6921 76.3457 44.071 78.8776 46.3066 81.2522C44.4974 82.3396 42.9903 83.2675 40.7715 84.5686C33.0632 89.0885 23.6279 94.4814 17.3223 98.0491L0 107.85L19.4824 111.918C27.0788 113.504 38.5607 115.881 48.3652 117.865C50.7961 118.357 52.556 118.697 54.6973 119.123C52.876 121.591 51.0301 124.074 49.291 126.942C44.6546 134.588 40.5156 143.247 40.5156 152.576C40.5156 162.326 42.5314 170.185 46.4492 176.307C50.367 182.428 55.9466 186.426 61.6621 189.283C64.8413 190.873 67.7303 191.81 70.4785 192.492C68.7825 195.751 67.4138 198.507 65.666 201.768C61.9911 208.623 58.2162 215.255 57.7754 215.916C48.0536 230.499 24.0773 262.33 18.6113 296.387L33.4219 298.764C38.0007 270.235 59.9777 239.654 70.2559 224.237C72.1737 221.36 75.1513 215.824 78.8867 208.856C82.6222 201.887 86.6662 194.131 89.2461 188.885L96.5293 174.074L80.582 178.33C80.8504 178.259 74.6569 179.01 68.3711 175.867C64.0866 173.725 61.1662 171.474 59.084 168.221C57.0018 164.968 55.5156 160.326 55.5156 152.576C55.5156 148.252 58.2119 141.159 62.1172 134.719C66.0224 128.279 70.9459 122.323 73.8828 119.315L86.3184 106.576H68.9316C68.7177 106.544 68.3817 106.489 67.9336 106.41C66.9848 106.244 65.6181 105.989 63.9688 105.672C60.6701 105.037 56.2187 104.149 51.3418 103.162C48.1448 102.515 45.2721 101.91 41.9043 101.219C44.1879 99.898 46.2236 98.7604 48.3594 97.5081C52.2719 95.2139 55.7637 93.1323 58.3203 91.5393C59.5986 90.7428 60.6197 90.0891 61.4902 89.4768C61.9255 89.1707 62.2802 88.9357 62.9004 88.3752C63.2105 88.095 63.5794 87.9087 64.3809 86.6233C64.7816 85.9806 65.5322 84.9999 65.5352 82.6135C65.5382 80.2271 63.2703 76.817 61.3711 75.8674C63.2327 76.7983 62.7548 76.7701 62.832 76.8381C62.9093 76.9062 62.8771 76.8791 62.8164 76.8206C62.695 76.7035 62.4309 76.4403 62.0918 76.094C61.4136 75.4014 60.412 74.3571 59.1934 73.0706C56.7561 70.4975 53.4302 66.9412 49.7695 63.0061C47.9692 61.0708 46.3257 59.275 44.4258 57.2249C46.3241 57.8133 48.0149 58.198 49.9297 58.8538C61.3515 62.7652 73.1127 67.5669 80.0449 70.7542L85.8652 73.4299L89.4199 68.0999C90.8719 65.9219 100.264 56.7745 109.875 51.0081C125.651 41.5426 147.663 44.3916 148.5 44.4104C149.337 44.4292 179 47.4104 179 47.4104C179 47.4104 169.549 39.9377 164.998 37.4104C160.447 34.8831 154 31.9104 150 30.9104C146 29.9104 145.143 30.1234 143 29.9104C148.5 24.9104 154.5 20.4104 160.447 17.4631C163.537 15.5619 164.868 15.0356 164.998 15.0041C165.082 14.9837 165.958 15.0927 166.617 15.1682C167.313 15.4779 167.494 15.7005 167.625 15.9612C167.791 16.2913 167.938 17.0753 167.891 17.8284L167.164 29.4026L178.018 25.3166C179.989 24.5744 180.993 23.907 182.758 22.9631C184.523 22.0193 186.611 20.9105 188.824 19.8499C193.252 17.7286 198.396 15.9908 200.881 15.887C203.467 15.7789 204.678 15.531 206.303 16.5139C206.289 16.7936 206.316 17.0941 205.852 17.6526L191.529 34.8831L213.338 29.7463C214.512 29.4698 214.384 29.4481 214.934 29.2776C215.483 29.1071 216.196 28.8903 217.068 28.6428C218.813 28.1479 221.189 27.5376 223.943 27.0159C229.099 26.0394 235.557 25.488 241.473 26.3245C243.256 27.4034 243.883 28.2093 243.969 28.4319C244.071 28.6962 244.142 29.0165 243.73 30.1057C242.961 32.1423 240.497 34.9227 239.1 36.3459C238.268 36.931 233.322 39.5898 228.074 41.6799C222.662 43.8356 213.845 46.9889 210 47.9319L200.254 51.0081L208.771 58.8967C232.127 86.724 238.351 95.8558 248.225 136.832C255.792 168.235 249.678 212.416 244.82 228.963L259.213 233.188C265.021 213.401 271.485 169.334 262.807 133.319C253.835 96.0867 245.325 80.5303 227.193 57.9709C229.339 57.2146 231.497 56.4631 233.625 55.6155C239.601 53.2352 244.666 51.1599 248.701 47.9319L249.004 47.6897L249.281 47.4182C250.178 46.5343 255.201 42.187 257.762 35.4065C259.042 32.0163 259.683 27.4927 257.965 23.0354C256.246 18.5781 252.455 14.9493 247.41 12.3889L246.422 11.887L245.332 11.6917C236.376 10.095 227.762 11.0253 221.15 12.2776C221.041 12.2984 220.988 12.321 220.879 12.342C220.379 10.4687 219.621 8.69219 218.439 7.17602L218.002 6.61743L217.469 6.14868C210.358 -0.0894108 201.03 0.868176 200.254 0.900633C193.506 1.18267 187.486 3.8577 182.342 6.32251C181.417 6.7655 180.792 7.11991 179.949 7.54907C177.977 4.66472 174.878 2.07664 170.945 0.732664L170.264 0.500242L169.549 0.400632C168.398 0.24116 167.15 0.0598224 165.805 0.0119644Z" fill="#263147"/>
<path d="M260.382 226.041L259 233.132C259 233.132 262.301 233.642 266.97 234.454C271.839 235.3 277.398 236.344 283.22 237.618C294.432 240.073 304.771 243.252 304.771 243.252C304.771 243.252 309.02 244.436 314.498 246.266C319.988 248.1 325.408 250.14 330.888 252.418C335.96 254.527 339.865 256.335 339.865 256.335C339.865 256.335 347.148 259.327 355.12 263.07C362.966 266.753 371.764 271.3 371.764 271.3C371.764 271.3 363.839 265.477 356.755 260.496C349.567 255.441 342.912 251.064 342.912 251.064C342.912 251.064 339.191 248.792 334.305 246.032C329.027 243.051 323.743 240.267 318.333 237.663C312.929 235.061 308.678 233.268 308.678 233.268C308.678 233.268 298.172 229.019 286.691 225.524C280.728 223.708 275.078 222.193 270.113 220.948C265.363 219.757 262.017 219 262.017 219L260.382 226.041Z" fill="#263147"/>
<path d="M447 211.692V61.9362H543.316V85.0587H474.272V122.011H535.741V144.702H474.272V188.57H548.511V211.692H447ZM596.663 211.692C589.45 196.854 582.018 179.854 574.37 160.693C566.867 141.388 560.013 120.715 553.809 98.6728H581.729C583.317 105.012 585.12 111.855 587.14 119.202C589.304 126.405 591.541 133.681 593.85 141.028C596.303 148.231 598.756 155.291 601.209 162.206C603.806 168.977 606.187 175.1 608.351 180.574C610.515 175.1 612.825 168.977 615.277 162.206C617.731 155.291 620.111 148.231 622.42 141.028C624.873 133.681 627.181 126.405 629.346 119.202C631.51 111.855 633.387 105.012 634.973 98.6728H662.028C655.824 120.715 648.898 141.388 641.25 160.693C633.747 179.854 626.388 196.854 619.173 211.692H596.663ZM672.775 155.723C672.775 145.782 674.217 137.066 677.104 129.575C680.134 122.084 684.103 115.889 689.008 110.99C693.914 105.948 699.541 102.202 705.89 99.7533C712.24 97.1602 718.733 95.8636 725.37 95.8636C740.954 95.8636 753.075 100.69 761.732 110.342C770.534 119.994 774.935 134.401 774.935 153.562C774.935 155.002 774.863 156.659 774.719 158.532C774.719 160.261 774.646 161.846 774.502 163.286H699.83C700.552 172.362 703.726 179.421 709.354 184.464C715.125 189.362 723.422 191.811 734.244 191.811C740.594 191.811 746.365 191.235 751.56 190.082C756.898 188.929 761.083 187.705 764.113 186.409L767.576 207.802C766.134 208.523 764.113 209.315 761.516 210.18C759.062 210.9 756.177 211.549 752.858 212.124C749.684 212.845 746.221 213.421 742.469 213.853C738.717 214.285 734.894 214.501 730.998 214.501C721.041 214.501 712.384 213.061 705.025 210.18C697.666 207.154 691.605 203.048 686.844 197.862C682.082 192.532 678.546 186.336 676.238 179.277C673.93 172.074 672.775 164.223 672.775 155.723ZM748.746 144.053C748.746 140.452 748.24 137.066 747.231 133.897C746.221 130.583 744.706 127.774 742.685 125.469C740.81 123.02 738.429 121.147 735.543 119.85C732.802 118.41 729.483 117.689 725.587 117.689C721.547 117.689 718.011 118.482 714.981 120.067C711.951 121.507 709.354 123.452 707.189 125.901C705.169 128.35 703.582 131.16 702.427 134.329C701.273 137.498 700.479 140.74 700.047 144.053H748.746ZM802.702 102.347C807.753 100.906 814.317 99.5372 822.398 98.2407C830.479 96.9441 839.425 96.2958 849.237 96.2958C858.471 96.2958 866.192 97.5924 872.396 100.186C878.6 102.635 883.507 106.164 887.114 110.774C890.866 115.24 893.464 120.715 894.906 127.198C896.494 133.537 897.287 140.524 897.287 148.159V211.692H871.098V152.265C871.098 146.214 870.665 141.1 869.799 136.922C869.077 132.6 867.778 129.143 865.903 126.55C864.172 123.812 861.718 121.867 858.544 120.715C855.514 119.418 851.762 118.77 847.289 118.77C843.97 118.77 840.507 118.986 836.9 119.418C833.293 119.85 830.623 120.211 828.892 120.499V211.692H802.702V102.347ZM928.013 68.8513L954.202 64.5293V98.6728H994.46V120.499H954.202V166.528C954.202 175.604 955.645 182.087 958.531 185.977C961.418 189.866 966.323 191.811 973.249 191.811C978.011 191.811 982.196 191.306 985.803 190.298C989.555 189.29 992.512 188.354 994.677 187.489L999.006 208.235C995.976 209.531 992.007 210.828 987.101 212.124C982.196 213.565 976.423 214.285 969.786 214.285C961.705 214.285 954.924 213.205 949.441 211.044C944.102 208.883 939.845 205.785 936.671 201.752C933.497 197.573 931.26 192.603 929.961 186.841C928.662 180.934 928.013 174.235 928.013 166.744V68.8513ZM1114.02 60.4235C1135.8 60.4235 1152.47 64.3853 1164.01 72.3089C1175.7 80.2324 1181.55 92.6221 1181.55 109.478C1181.55 118.266 1179.96 125.829 1176.78 132.168C1173.75 138.363 1169.28 143.477 1163.36 147.511C1157.45 151.401 1150.23 154.282 1141.72 156.155C1133.21 158.028 1123.47 158.964 1112.5 158.964H1098.86V211.692H1071.59V64.0971C1077.94 62.6565 1084.94 61.7201 1092.59 61.2879C1100.38 60.7116 1107.52 60.4235 1114.02 60.4235ZM1115.96 83.9782C1109.04 83.9782 1103.34 84.1943 1098.86 84.6265V135.626H1112.07C1125.2 135.626 1135.3 133.825 1142.37 130.223C1149.44 126.477 1152.97 119.49 1152.97 109.262C1152.97 104.363 1152.04 100.258 1150.16 96.9441C1148.28 93.6305 1145.69 91.0373 1142.37 89.1645C1139.05 87.2917 1135.08 85.9951 1130.47 85.2748C1125.99 84.4104 1121.16 83.9782 1115.96 83.9782ZM1244.54 213.853C1236.75 213.71 1230.25 212.845 1225.06 211.26C1220.01 209.675 1215.97 207.443 1212.94 204.561C1209.91 201.536 1207.74 197.862 1206.45 193.54C1205.29 189.074 1204.71 184.032 1204.71 178.413V48.322L1230.9 44V173.443C1230.9 176.612 1231.12 179.277 1231.55 181.438C1232.13 183.599 1233.07 185.472 1234.37 187.057C1235.67 188.497 1237.4 189.65 1239.56 190.515C1241.87 191.235 1244.76 191.811 1248.22 192.243L1244.54 213.853ZM1309.23 193.324C1317.31 193.324 1323.44 192.892 1327.63 192.027V163.07C1326.18 162.638 1324.09 162.206 1321.35 161.774C1318.61 161.341 1315.58 161.125 1312.26 161.125C1309.37 161.125 1306.41 161.341 1303.38 161.774C1300.5 162.206 1297.83 162.998 1295.38 164.151C1293.07 165.303 1291.19 166.96 1289.75 169.121C1288.31 171.138 1287.58 173.731 1287.58 176.9C1287.58 183.095 1289.53 187.417 1293.43 189.866C1297.32 192.171 1302.59 193.324 1309.23 193.324ZM1307.06 95.8636C1315.72 95.8636 1323.01 96.9441 1328.92 99.105C1334.84 101.266 1339.53 104.291 1342.99 108.181C1346.6 112.071 1349.13 116.825 1350.57 122.444C1352.16 127.918 1352.95 133.969 1352.95 140.596V209.099C1348.91 209.963 1342.78 210.971 1334.55 212.124C1326.47 213.421 1317.31 214.069 1307.06 214.069C1300.28 214.069 1294.08 213.421 1288.45 212.124C1282.82 210.828 1277.99 208.739 1273.95 205.858C1270.05 202.976 1266.95 199.231 1264.64 194.62C1262.48 190.01 1261.39 184.32 1261.39 177.549C1261.39 171.066 1262.62 165.591 1265.07 161.125C1267.67 156.659 1271.13 153.058 1275.46 150.32C1279.79 147.439 1284.77 145.422 1290.4 144.27C1296.17 142.973 1302.16 142.325 1308.36 142.325C1311.25 142.325 1314.28 142.541 1317.45 142.973C1320.63 143.261 1324.02 143.837 1327.63 144.702V140.38C1327.63 137.354 1327.27 134.473 1326.54 131.736C1325.82 128.999 1324.52 126.622 1322.65 124.605C1320.92 122.444 1318.54 120.787 1315.51 119.634C1312.62 118.482 1308.94 117.906 1304.47 117.906C1298.41 117.906 1292.85 118.338 1287.8 119.202C1282.75 120.067 1278.64 121.075 1275.46 122.228L1272.22 101.05C1275.54 99.8974 1280.37 98.7449 1286.72 97.5924C1293.07 96.4398 1299.85 95.8636 1307.06 95.8636ZM1385.02 102.347C1390.07 100.906 1396.64 99.5372 1404.72 98.2407C1412.8 96.9441 1421.74 96.2958 1431.56 96.2958C1440.79 96.2958 1448.51 97.5924 1454.72 100.186C1460.92 102.635 1465.83 106.164 1469.43 110.774C1473.19 115.24 1475.78 120.715 1477.22 127.198C1478.81 133.537 1479.61 140.524 1479.61 148.159V211.692H1453.42V152.265C1453.42 146.214 1452.98 141.1 1452.12 136.922C1451.4 132.6 1450.1 129.143 1448.22 126.55C1446.49 123.812 1444.04 121.867 1440.86 120.715C1437.83 119.418 1434.08 118.77 1429.61 118.77C1426.29 118.77 1422.83 118.986 1419.22 119.418C1415.61 119.85 1412.94 120.211 1411.21 120.499V211.692H1385.02V102.347ZM1511.63 102.347C1516.68 100.906 1523.25 99.5372 1531.33 98.2407C1539.41 96.9441 1548.35 96.2958 1558.17 96.2958C1567.4 96.2958 1575.12 97.5924 1581.32 100.186C1587.53 102.635 1592.44 106.164 1596.04 110.774C1599.79 115.24 1602.39 120.715 1603.83 127.198C1605.42 133.537 1606.22 140.524 1606.22 148.159V211.692H1580.03V152.265C1580.03 146.214 1579.59 141.1 1578.73 136.922C1578.01 132.6 1576.71 129.143 1574.83 126.55C1573.1 123.812 1570.65 121.867 1567.47 120.715C1564.44 119.418 1560.69 118.77 1556.22 118.77C1552.9 118.77 1549.44 118.986 1545.83 119.418C1542.22 119.85 1539.55 120.211 1537.82 120.499V211.692H1511.63V102.347ZM1631.96 155.723C1631.96 145.782 1633.41 137.066 1636.29 129.575C1639.32 122.084 1643.29 115.889 1648.2 110.99C1653.1 105.948 1658.73 102.202 1665.08 99.7533C1671.43 97.1602 1677.92 95.8636 1684.56 95.8636C1700.14 95.8636 1712.26 100.69 1720.92 110.342C1729.72 119.994 1734.12 134.401 1734.12 153.562C1734.12 155.002 1734.05 156.659 1733.91 158.532C1733.91 160.261 1733.84 161.846 1733.69 163.286H1659.02C1659.74 172.362 1662.91 179.421 1668.54 184.464C1674.31 189.362 1682.61 191.811 1693.43 191.811C1699.78 191.811 1705.55 191.235 1710.75 190.082C1716.09 188.929 1720.27 187.705 1723.3 186.409L1726.76 207.802C1725.32 208.523 1723.3 209.315 1720.7 210.18C1718.25 210.9 1715.37 211.549 1712.05 212.124C1708.87 212.845 1705.41 213.421 1701.66 213.853C1697.91 214.285 1694.08 214.501 1690.19 214.501C1680.23 214.501 1671.57 213.061 1664.21 210.18C1656.85 207.154 1650.79 203.048 1646.03 197.862C1641.27 192.532 1637.74 186.336 1635.43 179.277C1633.12 172.074 1631.96 164.223 1631.96 155.723ZM1707.93 144.053C1707.93 140.452 1707.43 137.066 1706.42 133.897C1705.41 130.583 1703.89 127.774 1701.87 125.469C1700 123.02 1697.62 121.147 1694.73 119.85C1691.99 118.41 1688.67 117.689 1684.77 117.689C1680.73 117.689 1677.2 118.482 1674.17 120.067C1671.14 121.507 1668.54 123.452 1666.38 125.901C1664.36 128.35 1662.77 131.16 1661.62 134.329C1660.46 137.498 1659.67 140.74 1659.23 144.053H1707.93ZM1826.39 122.228C1824.23 121.507 1821.2 120.787 1817.3 120.067C1813.55 119.202 1809.15 118.77 1804.1 118.77C1801.21 118.77 1798.11 119.058 1794.79 119.634C1791.62 120.211 1789.38 120.715 1788.08 121.147V211.692H1761.89V104.075C1766.94 102.202 1773.22 100.474 1780.72 98.8889C1788.37 97.1602 1796.81 96.2958 1806.04 96.2958C1807.78 96.2958 1809.8 96.4398 1812.1 96.728C1814.41 96.872 1816.72 97.1602 1819.03 97.5924C1821.34 97.8805 1823.58 98.3127 1825.74 98.8889C1827.9 99.3211 1829.64 99.7533 1830.94 100.186L1826.39 122.228Z" fill="#263147"/>
</svg>
