<svg width="150" height="130" viewBox="0 0 578 502" fill="none" xmlns="http://www.w3.org/2000/svg">
<path d="M165.805 0.601564C164.459 0.553704 163.014 0.640194 161.465 1.01563C158.367 1.76649 155.996 3.17854 152.586 5.27735C146.244 9.18026 140.439 14.7129 127.746 23.5L127.742 23.502L127.738 23.504C121.798 27.6279 115.375 31.3446 108.758 35.1759L108.834 35.3067C106.625 36.2993 104.399 37.3897 102.158 38.7345C93.4281 43.9724 85.9847 49.8747 80.9139 55.422C73.562 52.2393 64.4803 48.5707 54.7891 45.252C42.8046 41.1479 31.5205 37.666 22.5156 37.666H5.42578L16.9961 50.2441C22.754 56.5027 31.4335 65.9077 38.7871 73.8125C41.6921 76.9353 44.071 79.4672 46.3066 81.8418C44.4974 82.9292 42.9903 83.8571 40.7715 85.1582C33.0632 89.6781 23.6279 95.071 17.3223 98.6387L0 108.439L19.4824 112.508C27.0788 114.094 38.5607 116.471 48.3652 118.455C50.7961 118.947 52.556 119.287 54.6973 119.713C52.876 122.181 51.0301 124.663 49.291 127.531C44.6546 135.178 40.5156 143.837 40.5156 153.166C40.5156 162.916 42.5314 170.775 46.4492 176.896C50.367 183.018 55.9466 187.015 61.6621 189.873C64.8413 191.463 67.7303 192.399 70.4785 193.082C68.7825 196.341 67.4138 199.097 65.666 202.357C61.9911 209.213 58.2162 215.845 57.7754 216.506C48.0536 231.089 24.0773 262.92 18.6113 296.977L33.4219 299.354C38.0007 270.824 59.9777 240.243 70.2559 224.826C72.1737 221.949 75.1513 216.414 78.8867 209.445C82.6222 202.477 86.6662 194.721 89.2461 189.475L96.5293 174.664L80.582 178.92C80.8504 178.848 74.6569 179.6 68.3711 176.457C64.0866 174.315 61.1662 172.064 59.084 168.811C57.0018 165.557 55.5156 160.916 55.5156 153.166C55.5156 148.842 58.2119 141.749 62.1172 135.309C66.0224 128.868 70.9459 122.913 73.8828 119.904L86.3184 107.166H68.9316C68.7177 107.134 68.3817 107.079 67.9336 107C66.9848 106.834 65.6181 106.579 63.9688 106.262C60.6701 105.627 56.2187 104.739 51.3418 103.752C48.1448 103.105 45.2721 102.499 41.9043 101.809C44.1879 100.488 46.2236 99.35 48.3594 98.0977C52.2719 95.8035 55.7637 93.7219 58.3203 92.1289C59.5986 91.3324 60.6197 90.6787 61.4902 90.0664C61.9255 89.7603 62.2802 89.5253 62.9004 88.9648C63.2105 88.6846 63.5794 88.4983 64.3809 87.2129C64.7816 86.5702 65.5322 85.5895 65.5352 83.2031C65.5382 80.8167 63.2703 77.4066 61.3711 76.457C63.2327 77.3879 62.7548 77.3597 62.832 77.4277C62.9093 77.4958 62.8771 77.4687 62.8164 77.4102C62.695 77.2931 62.4309 77.0299 62.0918 76.6836C61.4136 75.991 60.412 74.9467 59.1934 73.6602C56.7561 71.0871 53.4302 67.5308 49.7695 63.5957C47.9692 61.6604 46.3257 59.8646 44.4258 57.8145C46.3241 58.4029 48.0149 58.7876 49.9297 59.4434C61.3515 63.3548 73.1127 68.1565 80.0449 71.3438L85.8652 74.0195L89.4199 68.6895C90.8719 66.5115 100.264 57.3641 109.875 51.5977C125.651 42.1322 147.663 44.9812 148.5 45C149.337 45.0188 179 48 179 48C179 48 169.549 40.5273 164.998 38C160.447 35.4727 154 32.5 150 31.5C146 30.5 145.143 30.713 143 30.5C148.5 25.5 154.5 21 160.447 18.0527C163.537 16.1515 164.868 15.6252 164.998 15.5937C165.082 15.5733 165.958 15.6823 166.617 15.7578C167.313 16.0675 167.494 16.2901 167.625 16.5508C167.791 16.8809 167.938 17.6649 167.891 18.418L167.164 29.9922L178.018 25.9062C179.989 25.164 180.993 24.4966 182.758 23.5527C184.523 22.6089 186.611 21.5001 188.824 20.4395C193.252 18.3182 198.396 16.5804 200.881 16.4766C203.467 16.3685 204.678 16.1206 206.303 17.1035C206.289 17.3832 206.316 17.6837 205.852 18.2422L191.529 35.4727L213.338 30.3359C214.512 30.0594 214.384 30.0377 214.934 29.8672C215.483 29.6967 216.196 29.4799 217.068 29.2324C218.813 28.7375 221.189 28.1272 223.943 27.6055C229.099 26.629 235.557 26.0776 241.473 26.9141C243.256 27.993 243.883 28.7989 243.969 29.0215C244.071 29.2858 244.142 29.6061 243.73 30.6953C242.961 32.7319 240.497 35.5123 239.1 36.9355C238.268 37.5206 233.322 40.1794 228.074 42.2695C222.662 44.4252 213.845 47.5785 210 48.5215L200.254 51.5977L208.771 59.4863C232.127 87.3136 238.351 96.4454 248.225 137.422C255.792 168.825 249.678 213.006 244.82 229.553L259.213 233.777C265.021 213.99 271.485 169.924 262.807 133.908C253.835 96.6763 245.325 81.1199 227.193 58.5605C229.339 57.8042 231.497 57.0527 233.625 56.2051C239.601 53.8248 244.666 51.7495 248.701 48.5215L249.004 48.2793L249.281 48.0078C250.178 47.1239 255.201 42.7766 257.762 35.9961C259.042 32.6059 259.683 28.0823 257.965 23.625C256.246 19.1677 252.455 15.5389 247.41 12.9785L246.422 12.4766L245.332 12.2813C236.376 10.6846 227.762 11.6149 221.15 12.8672C221.041 12.888 220.988 12.9106 220.879 12.9316C220.379 11.0583 219.621 9.28179 218.439 7.76562L218.002 7.20703L217.469 6.73828C210.358 0.500189 201.03 1.45778 200.254 1.49023C193.506 1.77227 187.486 4.4473 182.342 6.91211C181.417 7.3551 180.792 7.70951 179.949 8.13867C177.977 5.25432 174.878 2.66624 170.945 1.32226L170.264 1.08984L169.549 0.990232C168.398 0.83076 167.15 0.649422 165.805 0.601564Z" fill="#263147"/>
<path d="M254.516 290.666L256.909 297.774L257.688 283.87L254.516 290.666ZM203.016 338.666L210.492 339.259L203.016 338.666ZM222.016 380.166L218.523 386.803L218.868 386.985L219.231 387.13L222.016 380.166ZM260.016 381.186L262.708 388.186L260.016 381.186ZM286.516 363.686L293.631 366.058L302.031 340.859L281.692 357.943L286.516 363.686ZM286.016 365.186L291.837 369.916L292.699 368.855L293.131 367.558L286.016 365.186ZM300.83 221.782C290.673 219.974 275.044 218.188 260.342 220.064C245.948 221.901 229.991 227.625 223.153 243.142L236.879 249.19C240.441 241.107 249.401 236.581 262.24 234.943C274.772 233.344 288.693 234.858 298.202 236.55L300.83 221.782ZM223.153 243.142C220.07 250.137 219.069 256.821 219.914 263.093C220.756 269.339 223.364 274.699 226.771 279.18C233.432 287.942 243.49 293.797 251.344 297.462L257.688 283.87C250.542 280.535 243.15 275.94 238.711 270.102C236.568 267.283 235.213 264.305 234.78 261.089C234.35 257.898 234.762 253.995 236.879 249.19L223.153 243.142ZM252.123 283.558C243.338 286.516 230.182 292.569 218.811 301.34C207.623 309.968 196.79 322.311 195.54 338.073L210.492 339.259C211.242 329.821 217.992 320.914 227.971 313.217C237.766 305.663 249.36 300.316 256.909 297.774L252.123 283.558ZM195.54 338.073C194.328 353.341 197.833 364.55 203.031 372.561C208.162 380.469 214.6 384.738 218.523 386.803L225.509 373.529C223.099 372.26 218.945 369.529 215.614 364.396C212.35 359.365 209.522 351.491 210.492 339.259L195.54 338.073ZM219.231 387.13C227.063 390.263 233.909 392.255 241.004 392.493C248.177 392.734 254.969 391.163 262.708 388.186L257.324 374.186C250.7 376.734 245.992 377.652 241.506 377.502C236.942 377.349 231.969 376.069 224.801 373.202L219.231 387.13ZM262.708 388.186C269.478 385.583 273.629 383.569 277.792 380.617C281.561 377.944 285.476 374.354 291.34 369.429L281.692 357.943C275.056 363.518 272.221 366.179 269.115 368.381C266.403 370.304 263.554 371.79 257.324 374.186L262.708 388.186ZM279.401 361.314L278.901 362.814L293.131 367.558L293.631 366.058L279.401 361.314ZM280.195 360.457C269.15 374.051 252.332 375.976 246.691 377.391L250.341 391.941C253.7 391.098 276.882 388.322 291.837 369.916L280.195 360.457Z" fill="#263147"/>
<path d="M294.976 385.166C292.843 376.462 290.923 366.393 289.216 354.958C287.509 343.438 286.4 331.193 285.888 318.222H301.76C301.845 321.977 301.973 326.03 302.144 330.382C302.4 334.734 302.699 339.129 303.04 343.566C303.381 347.918 303.765 352.142 304.192 356.238C304.704 360.334 305.259 364.046 305.856 367.374C308.075 364.473 310.464 361.017 313.024 357.006C315.584 352.91 318.059 348.643 320.448 344.206C322.837 339.683 325.013 335.161 326.976 330.638C328.939 326.115 330.517 321.977 331.712 318.222H347.84C345.792 324.11 343.232 330.169 340.16 336.398C337.088 342.627 333.76 348.686 330.176 354.574C326.592 360.462 322.88 366.051 319.04 371.342C315.285 376.633 311.701 381.241 308.288 385.166H294.976ZM347.807 360.974C347.807 355.257 348.703 349.753 350.495 344.462C352.372 339.086 355.018 334.35 358.431 330.254C361.93 326.073 366.111 322.745 370.975 320.27C375.839 317.795 381.3 316.558 387.359 316.558C393.844 316.558 398.879 318.222 402.463 321.55C406.047 324.878 407.839 329.145 407.839 334.35C407.839 339.726 406.516 344.078 403.871 347.406C401.226 350.734 397.77 353.337 393.503 355.214C389.322 357.091 384.543 358.371 379.167 359.054C373.876 359.737 368.5 360.163 363.039 360.334C362.954 360.505 362.911 360.675 362.911 360.846V362.126C362.911 369.891 367.818 373.774 377.631 373.774C383.434 373.774 389.236 372.579 395.039 370.19L396.319 382.734C394.271 383.673 391.37 384.611 387.615 385.55C383.86 386.489 379.594 386.958 374.815 386.958C370.036 386.958 365.94 386.275 362.527 384.91C359.114 383.545 356.298 381.667 354.079 379.278C351.946 376.889 350.367 374.158 349.343 371.086C348.319 367.929 347.807 364.558 347.807 360.974ZM385.055 329.23C382.495 329.23 380.063 329.742 377.759 330.766C375.455 331.79 373.407 333.198 371.615 334.99C369.823 336.782 368.244 338.915 366.879 341.39C365.599 343.779 364.66 346.382 364.063 349.198C374.303 348.857 381.727 347.619 386.335 345.486C391.028 343.353 393.375 340.153 393.375 335.886C393.375 334.179 392.735 332.643 391.455 331.278C390.26 329.913 388.127 329.23 385.055 329.23ZM427.095 321.038C430.508 320.014 434.391 319.075 438.743 318.222C443.18 317.283 448.002 316.814 453.207 316.814C461.058 316.814 466.818 318.734 470.487 322.574C474.156 326.414 475.991 331.577 475.991 338.062C475.991 339.854 475.82 341.774 475.479 343.822C475.223 345.785 474.882 347.833 474.455 349.966L466.007 385.166H450.519L458.455 351.63C458.882 349.753 459.308 347.833 459.735 345.87C460.162 343.907 460.418 342.03 460.503 340.238C460.588 337.251 459.863 334.777 458.327 332.814C456.876 330.851 453.975 329.87 449.623 329.87C445.954 329.87 442.796 330.254 440.151 331.022L427.223 385.166H411.735L427.095 321.038ZM502.42 300.558L518.548 297.998L513.684 318.222H535.572L532.5 331.022H510.612L504.212 357.518C503.785 359.395 503.487 360.974 503.316 362.254C503.145 363.449 503.06 364.558 503.06 365.582C503.06 366.606 503.145 367.63 503.316 368.654C503.572 369.593 503.999 370.446 504.596 371.214C505.279 371.897 506.217 372.494 507.412 373.006C508.692 373.433 510.399 373.646 512.532 373.646C514.836 373.646 517.055 373.347 519.188 372.75C521.321 372.153 523.199 371.513 524.82 370.83L525.972 383.246C524.009 384.099 521.535 384.91 518.548 385.678C515.561 386.446 512.063 386.83 508.052 386.83C500.713 386.83 495.465 385.251 492.308 382.094C489.151 378.851 487.572 374.457 487.572 368.91C487.572 366.862 487.7 364.771 487.956 362.638C488.297 360.419 488.767 358.073 489.364 355.598L502.42 300.558Z" fill="#263147"/>
<path d="M95.9201 392.766C108.587 392.766 118.264 395.249 124.952 400.214C131.741 405.179 135.136 412.273 135.136 421.494C135.136 428.79 133.717 435.022 130.88 440.19C128.144 445.257 124.293 449.411 119.328 452.654C114.464 455.897 108.587 458.278 101.696 459.798C94.9068 461.217 87.4081 461.926 79.2001 461.926H70.9921L62.0241 499.166H42.8721L67.6481 395.35C72.5121 394.337 77.3761 393.678 82.2401 393.374C87.1041 392.969 91.6641 392.766 95.9201 392.766ZM94.0961 408.878C92.1708 408.878 90.3468 408.929 88.6241 409.03C86.9014 409.131 85.1788 409.283 83.4561 409.486L74.7921 445.814H82.5441C86.8001 445.814 90.9041 445.459 94.8561 444.75C98.8081 444.041 102.304 442.875 105.344 441.254C108.384 439.531 110.816 437.251 112.64 434.414C114.464 431.475 115.376 427.777 115.376 423.318C115.376 418.15 113.451 414.451 109.6 412.222C105.851 409.993 100.683 408.878 94.0961 408.878ZM164.543 500.686C159.781 500.585 155.727 499.977 152.383 498.862C149.141 497.747 146.506 496.227 144.479 494.302C142.554 492.377 141.135 490.097 140.223 487.462C139.413 484.827 139.007 481.939 139.007 478.798C139.007 475.555 139.362 472.161 140.071 468.614C140.882 464.966 141.743 461.369 142.655 457.822L160.287 384.254L179.439 381.214C176.298 394.489 173.157 407.713 170.015 420.886C166.874 433.958 163.682 447.131 160.439 460.406C159.933 462.534 159.375 464.662 158.767 466.79C158.159 468.817 157.855 470.843 157.855 472.87C157.855 474.593 157.855 476.214 157.855 477.734C157.957 479.153 158.362 480.419 159.071 481.534C159.882 482.547 161.047 483.409 162.567 484.118C164.087 484.827 166.063 485.283 168.495 485.486L164.543 500.686ZM246.951 468.31C246.647 469.425 246.343 471.249 246.039 473.782C245.735 476.315 245.583 478.697 245.583 480.926C245.583 483.865 245.836 486.753 246.343 489.59C246.85 492.326 247.66 495.113 248.775 497.95L232.359 500.382C231.143 497.95 230.18 495.366 229.471 492.63C226.938 494.859 223.796 496.886 220.047 498.71C216.399 500.433 212.244 501.294 207.583 501.294C202.82 501.294 198.716 500.534 195.271 499.014C191.927 497.393 189.191 495.214 187.063 492.478C184.935 489.641 183.364 486.347 182.351 482.598C181.338 478.849 180.831 474.795 180.831 470.438C180.831 463.041 182.148 456.15 184.783 449.766C187.418 443.382 191.066 437.859 195.727 433.198C200.49 428.537 206.114 424.889 212.599 422.254C219.084 419.518 226.178 418.15 233.879 418.15C237.831 418.15 241.783 418.505 245.735 419.214C249.788 419.822 253.842 421.038 257.895 422.862L246.951 468.31ZM236.919 433.958C234.994 433.553 232.815 433.35 230.383 433.35C225.823 433.35 221.618 434.363 217.767 436.39C213.916 438.315 210.572 440.95 207.735 444.294C204.999 447.537 202.871 451.286 201.351 455.542C199.831 459.798 199.071 464.257 199.071 468.918C199.071 471.249 199.274 473.427 199.679 475.454C200.084 477.481 200.743 479.254 201.655 480.774C202.668 482.294 203.986 483.51 205.607 484.422C207.228 485.334 209.306 485.79 211.839 485.79C215.082 485.79 217.919 485.131 220.351 483.814C222.884 482.395 225.215 480.521 227.343 478.19C227.444 475.555 227.647 473.073 227.951 470.742C228.356 468.411 228.863 466.081 229.471 463.75L236.919 433.958ZM280.485 423.014C284.538 421.798 289.149 420.683 294.317 419.67C299.586 418.555 305.311 417.998 311.493 417.998C320.815 417.998 327.655 420.278 332.013 424.838C336.37 429.398 338.549 435.529 338.549 443.23C338.549 445.358 338.346 447.638 337.941 450.07C337.637 452.401 337.231 454.833 336.725 457.366L326.693 499.166H308.301L317.725 459.342C318.231 457.113 318.738 454.833 319.245 452.502C319.751 450.171 320.055 447.942 320.157 445.814C320.258 442.267 319.397 439.329 317.573 436.998C315.85 434.667 312.405 433.502 307.237 433.502C302.879 433.502 299.13 433.958 295.989 434.87L280.637 499.166H262.245L280.485 423.014ZM366.133 423.014C370.187 421.798 374.797 420.683 379.965 419.67C385.235 418.555 390.96 417.998 397.141 417.998C406.464 417.998 413.304 420.278 417.661 424.838C422.019 429.398 424.197 435.529 424.197 443.23C424.197 445.358 423.995 447.638 423.589 450.07C423.285 452.401 422.88 454.833 422.373 457.366L412.341 499.166H393.949L403.373 459.342C403.88 457.113 404.387 454.833 404.893 452.502C405.4 450.171 405.704 447.942 405.805 445.814C405.907 442.267 405.045 439.329 403.221 436.998C401.499 434.667 398.053 433.502 392.885 433.502C388.528 433.502 384.779 433.958 381.637 434.87L366.285 499.166H347.893L366.133 423.014ZM437.19 470.438C437.19 463.649 438.254 457.113 440.382 450.83C442.611 444.446 445.752 438.822 449.806 433.958C453.96 428.993 458.926 425.041 464.702 422.102C470.478 419.163 476.963 417.694 484.158 417.694C491.859 417.694 497.838 419.67 502.094 423.622C506.35 427.574 508.478 432.641 508.478 438.822C508.478 445.206 506.907 450.374 503.766 454.326C500.624 458.278 496.52 461.369 491.454 463.598C486.488 465.827 480.814 467.347 474.43 468.158C468.147 468.969 461.763 469.475 455.278 469.678C455.176 469.881 455.126 470.083 455.126 470.286V471.806C455.126 481.027 460.952 485.638 472.606 485.638C479.496 485.638 486.387 484.219 493.278 481.382L494.798 496.278C492.366 497.393 488.92 498.507 484.462 499.622C480.003 500.737 474.936 501.294 469.262 501.294C463.587 501.294 458.723 500.483 454.67 498.862C450.616 497.241 447.272 495.011 444.638 492.174C442.104 489.337 440.23 486.094 439.014 482.446C437.798 478.697 437.19 474.694 437.19 470.438ZM481.422 432.742C478.382 432.742 475.494 433.35 472.758 434.566C470.022 435.782 467.59 437.454 465.462 439.582C463.334 441.71 461.459 444.243 459.838 447.182C458.318 450.019 457.203 453.11 456.494 456.454C468.654 456.049 477.47 454.579 482.942 452.046C488.515 449.513 491.302 445.713 491.302 440.646C491.302 438.619 490.542 436.795 489.022 435.174C487.603 433.553 485.07 432.742 481.422 432.742ZM571.928 435.934C569.902 435.225 567.723 434.667 565.392 434.262C563.062 433.857 560.326 433.654 557.184 433.654C555.462 433.654 553.638 433.806 551.712 434.11C549.787 434.313 548.166 434.617 546.848 435.022L531.496 499.166H513.104L531.344 423.318C535.6 421.899 540.211 420.683 545.176 419.67C550.142 418.555 555.512 417.998 561.288 417.998C562.504 417.998 563.872 418.099 565.392 418.302C566.912 418.403 568.382 418.555 569.8 418.758C571.32 418.961 572.688 419.214 573.904 419.518C575.222 419.822 576.336 420.177 577.248 420.582L571.928 435.934Z" fill="#263147"/>
<path d="M297.469 228.8L296.087 236.218C296.087 236.218 299.388 236.751 304.057 237.6C308.926 238.486 314.485 239.578 320.307 240.911C331.519 243.479 341.858 246.805 341.858 246.805C341.858 246.805 346.107 248.044 351.585 249.959C357.075 251.877 362.495 254.011 367.975 256.395C373.047 258.601 376.952 260.493 376.952 260.493C376.952 260.493 384.235 263.623 392.207 267.539C400.053 271.392 408.851 276.149 408.851 276.149C408.851 276.149 400.926 270.057 393.842 264.846C386.654 259.557 379.999 254.978 379.999 254.978C379.999 254.978 376.278 252.601 371.392 249.714C366.114 246.595 360.83 243.683 355.42 240.958C350.016 238.236 345.765 236.36 345.765 236.36C345.765 236.36 335.259 231.915 323.778 228.258C317.815 226.358 312.165 224.774 307.2 223.471C302.45 222.225 299.104 221.433 299.104 221.433L297.469 228.8Z" fill="#263147"/>
<path d="M26.7317 291.786C25.8406 291.782 22.1923 291.787 20.9213 292.109C19.562 292.453 19.1499 293.401 18.896 295.146C17.9252 300.966 16.6921 310.358 16.1816 320.174C15.8971 325.643 15.8589 330.787 16.0932 335.487C16.1634 336.897 16.2569 338.242 16.3718 339.525C16.7021 343.212 17.2798 346.706 18.1484 349.872C20.7385 358.965 23.5809 367.873 27.8633 376.81C29.2438 379.691 30.6698 382.349 32.1396 384.825C33.3195 386.813 34.5955 388.743 35.9599 390.591C40.3459 396.531 44.5139 400.09 47.1184 402.148C44.9792 399.532 41.9584 395.195 39.0776 388.759C38.1836 386.763 37.3783 384.738 36.635 382.685C35.7118 380.135 34.8829 377.413 34.1399 374.507C31.8131 365.405 30.8493 356.851 29.6775 347.518C29.3848 344.984 29.2296 342.09 29.1926 338.844C29.1798 337.723 29.186 336.535 29.2134 335.277C29.3051 331.064 29.6285 326.375 30.1715 321.268C31.1639 311.933 32.6485 303.38 33.6542 297.675C34.1661 294.947 33.7789 293.294 32.5084 292.613C31.1406 291.879 27.7581 291.79 26.7317 291.786H26.7317Z" fill="#263147"/>
</svg>
