<svg width="215" height="75" viewBox="0 0 1484 412" fill="none" xmlns="http://www.w3.org/2000/svg">
<path d="M165.805 0.0120254C164.459 -0.0358346 163.014 0.0506549 161.465 0.426088C158.367 1.17695 155.996 2.589 152.586 4.68781C146.244 8.59072 140.439 14.1234 127.746 22.9105L127.742 22.9125L127.738 22.9145C121.798 27.0384 115.375 30.7551 108.758 34.5863L108.834 34.7172C106.625 35.7098 104.399 36.8001 102.158 38.1449C93.4281 43.3829 85.9847 49.2852 80.9139 54.8324C73.562 51.6497 64.4803 47.9812 54.7891 44.6624C42.8046 40.5583 31.5205 37.0765 22.5156 37.0765H5.42578L16.9961 49.6546C22.754 55.9132 31.4335 65.3182 38.7871 73.223C41.6921 76.3457 44.071 78.8776 46.3066 81.2523C44.4974 82.3397 42.9903 83.2676 40.7715 84.5687C33.0632 89.0886 23.6279 94.4815 17.3223 98.0491L0 107.85L19.4824 111.918C27.0788 113.505 38.5607 115.881 48.3652 117.866C50.7961 118.357 52.556 118.697 54.6973 119.123C52.876 121.591 51.0301 124.074 49.291 126.942C44.6546 134.588 40.5156 143.247 40.5156 152.576C40.5156 162.326 42.5314 170.185 46.4492 176.307C50.367 182.429 55.9466 186.426 61.6621 189.284C64.8413 190.873 67.7303 191.81 70.4785 192.492C68.7825 195.751 67.4138 198.507 65.666 201.768C61.9911 208.623 58.2162 215.255 57.7754 215.916C48.0536 230.499 24.0773 262.33 18.6113 296.387L33.4219 298.764C38.0007 270.235 59.9777 239.654 70.2559 224.237C72.1737 221.36 75.1513 215.824 78.8867 208.856C82.6222 201.887 86.6662 194.131 89.2461 188.885L96.5293 174.075L80.582 178.33C80.8504 178.259 74.6569 179.01 68.3711 175.867C64.0866 173.725 61.1662 171.474 59.084 168.221C57.0018 164.968 55.5156 160.326 55.5156 152.576C55.5156 148.252 58.2119 141.16 62.1172 134.719C66.0224 128.279 70.9459 122.323 73.8828 119.315L86.3184 106.576H68.9316C68.7177 106.544 68.3817 106.489 67.9336 106.41C66.9848 106.244 65.6181 105.99 63.9688 105.672C60.6701 105.038 56.2187 104.149 51.3418 103.162C48.1448 102.515 45.2721 101.91 41.9043 101.219C44.1879 99.898 46.2236 98.7605 48.3594 97.5081C52.2719 95.2139 55.7637 93.1323 58.3203 91.5394C59.5986 90.7429 60.6197 90.0891 61.4902 89.4769C61.9255 89.1707 62.2802 88.9358 62.9004 88.3753C63.2105 88.0951 63.5794 87.9088 64.3809 86.6234C64.7816 85.9807 65.5322 85 65.5352 82.6136C65.5382 80.2272 63.2703 76.8171 61.3711 75.8675C63.2327 76.7983 62.7548 76.7702 62.832 76.8382C62.9093 76.9062 62.8771 76.8792 62.8164 76.8206C62.695 76.7036 62.4309 76.4404 62.0918 76.0941C61.4136 75.4014 60.412 74.3572 59.1934 73.0706C56.7561 70.4975 53.4302 66.9413 49.7695 63.0062C47.9692 61.0709 46.3257 59.2751 44.4258 57.2249C46.3241 57.8133 48.0149 58.1981 49.9297 58.8538C61.3515 62.7652 73.1127 67.567 80.0449 70.7542L85.8652 73.43L89.4199 68.0999C90.8719 65.9219 100.264 56.7745 109.875 51.0081C125.651 41.5427 147.663 44.3917 148.5 44.4105C149.337 44.4292 179 47.4105 179 47.4105C179 47.4105 169.549 39.9378 164.998 37.4105C160.447 34.8831 154 31.9105 150 30.9105C146 29.9105 145.143 30.1235 143 29.9105C148.5 24.9105 154.5 20.4105 160.447 17.4632C163.537 15.562 164.868 15.0357 164.998 15.0042C165.082 14.9838 165.958 15.0927 166.617 15.1683C167.313 15.478 167.494 15.7005 167.625 15.9612C167.791 16.2913 167.938 17.0754 167.891 17.8284L167.164 29.4026L178.018 25.3167C179.989 24.5744 180.993 23.907 182.758 22.9632C184.523 22.0194 186.611 20.9105 188.824 19.8499C193.252 17.7287 198.396 15.9909 200.881 15.887C203.467 15.7789 204.678 15.5311 206.303 16.514C206.289 16.7936 206.316 17.0942 205.852 17.6526L191.529 34.8831L213.338 29.7464C214.512 29.4698 214.384 29.4482 214.934 29.2776C215.483 29.1071 216.196 28.8903 217.068 28.6429C218.813 28.148 221.189 27.5376 223.943 27.0159C229.099 26.0394 235.557 25.4881 241.473 26.3245C243.256 27.4035 243.883 28.2094 243.969 28.4319C244.071 28.6962 244.142 29.0165 243.73 30.1058C242.961 32.1424 240.497 34.9228 239.1 36.346C238.268 36.9311 233.322 39.5899 228.074 41.68C222.662 43.8357 213.845 46.9889 210 47.9319L200.254 51.0081L208.771 58.8968C232.127 86.7241 238.351 95.8559 248.225 136.832C255.792 168.235 249.678 212.416 244.82 228.963L259.213 233.188C265.021 213.401 271.485 169.334 262.807 133.319C253.835 96.0868 245.325 80.5304 227.193 57.971C229.339 57.2146 231.497 56.4631 233.625 55.6155C239.601 53.2352 244.666 51.1599 248.701 47.9319L249.004 47.6898L249.281 47.4183C250.178 46.5344 255.201 42.187 257.762 35.4066C259.042 32.0163 259.683 27.4928 257.965 23.0355C256.246 18.5782 252.455 14.9494 247.41 12.389L246.422 11.887L245.332 11.6917C236.376 10.0951 227.762 11.0254 221.15 12.2777C221.041 12.2985 220.988 12.3211 220.879 12.3421C220.379 10.4688 219.621 8.69225 218.439 7.17608L218.002 6.61749L217.469 6.14874C210.358 -0.0893497 201.03 0.868237 200.254 0.900694C193.506 1.18273 187.486 3.85776 182.342 6.32257C181.417 6.76556 180.792 7.11997 179.949 7.54913C177.977 4.66478 174.878 2.0767 170.945 0.732725L170.264 0.500303L169.549 0.400694C168.398 0.241222 167.15 0.0598834 165.805 0.0120254Z" fill="#263147"/>
<path d="M260.382 226.041L259 233.132C259 233.132 262.301 233.642 266.97 234.454C271.839 235.3 277.398 236.344 283.22 237.618C294.432 240.073 304.771 243.252 304.771 243.252C304.771 243.252 309.02 244.436 314.498 246.266C319.988 248.1 325.408 250.14 330.888 252.418C335.96 254.527 339.865 256.335 339.865 256.335C339.865 256.335 347.148 259.327 355.12 263.07C362.966 266.753 371.764 271.3 371.764 271.3C371.764 271.3 363.839 265.477 356.755 260.496C349.567 255.441 342.912 251.064 342.912 251.064C342.912 251.064 339.191 248.792 334.305 246.032C329.027 243.051 323.743 240.267 318.333 237.663C312.929 235.061 308.678 233.268 308.678 233.268C308.678 233.268 298.172 229.019 286.691 225.524C280.728 223.708 275.078 222.193 270.113 220.948C265.363 219.757 262.017 219 262.017 219L260.382 226.041Z" fill="#263147"/>
<path d="M26.7317 291.196C25.8406 291.192 22.1923 291.197 20.9213 291.519C19.562 291.863 19.1499 292.811 18.896 294.556C17.9252 300.376 16.6921 309.769 16.1816 319.584C15.8971 325.053 15.8589 330.198 16.0932 334.898C16.1634 336.307 16.2569 337.652 16.3718 338.935C16.7021 342.623 17.2798 346.117 18.1484 349.282C20.7385 358.375 23.5809 367.284 27.8633 376.22C29.2438 379.101 30.6698 381.76 32.1396 384.236C33.3195 386.223 34.5955 388.154 35.9599 390.002C40.3459 395.942 44.5139 399.5 47.1184 401.558C44.9792 398.942 41.9584 394.605 39.0776 388.17C38.1836 386.173 37.3783 384.148 36.635 382.095C35.7118 379.546 34.8829 376.824 34.1399 373.918C31.8131 364.815 30.8493 356.261 29.6775 346.929C29.3848 344.395 29.2296 341.501 29.1926 338.254C29.1798 337.133 29.186 335.945 29.2134 334.687C29.3051 330.475 29.6285 325.786 30.1715 320.678C31.1639 311.344 32.6485 302.791 33.6542 297.086C34.1661 294.357 33.7789 292.704 32.5084 292.023C31.1406 291.29 27.7581 291.201 26.7317 291.196H26.7317Z" fill="#263147"/>
<path d="M134 408.728V262.512H227.89V285.088H160.585V321.167H220.506V343.321H160.585V386.152H232.954V408.728H134ZM279.894 408.728C272.862 394.24 265.617 377.642 258.162 358.934C250.848 340.086 244.167 319.901 238.118 298.38H265.336C266.883 304.569 268.642 311.251 270.611 318.424C272.72 325.457 274.901 332.561 277.151 339.734C279.542 346.767 281.934 353.66 284.324 360.411C286.856 367.022 289.177 373 291.287 378.345C293.397 373 295.648 367.022 298.039 360.411C300.43 353.66 302.751 346.767 305.001 339.734C307.393 332.561 309.643 325.457 311.753 318.424C313.863 311.251 315.692 304.569 317.239 298.38H343.612C337.565 319.901 330.813 340.086 323.357 358.934C316.044 377.642 308.87 394.24 301.837 408.728H279.894ZM354.088 354.082C354.088 344.376 355.494 335.866 358.308 328.552C361.262 321.238 365.131 315.189 369.913 310.407C374.695 305.484 380.18 301.827 386.37 299.435C392.559 296.903 398.889 295.637 405.359 295.637C420.55 295.637 432.365 300.35 440.805 309.774C449.385 319.198 453.675 333.264 453.675 351.972C453.675 353.378 453.605 354.996 453.464 356.824C453.464 358.512 453.394 360.06 453.253 361.466H380.462C381.166 370.328 384.26 377.22 389.746 382.143C395.371 386.925 403.46 389.317 414.009 389.317C420.199 389.317 425.825 388.755 430.888 387.629C436.092 386.503 440.172 385.308 443.126 384.042L446.502 404.93C445.096 405.634 443.126 406.407 440.594 407.251C438.202 407.955 435.39 408.588 432.154 409.15C429.06 409.854 425.685 410.416 422.027 410.838C418.369 411.26 414.642 411.471 410.845 411.471C401.139 411.471 392.699 410.065 385.526 407.251C378.352 404.297 372.444 400.288 367.803 395.225C363.161 390.021 359.714 383.971 357.464 377.079C355.214 370.046 354.088 362.381 354.088 354.082ZM428.146 342.688C428.146 339.172 427.653 335.866 426.669 332.772C425.685 329.536 424.208 326.794 422.238 324.543C420.41 322.152 418.089 320.323 415.275 319.057C412.603 317.651 409.368 316.947 405.57 316.947C401.632 316.947 398.185 317.721 395.231 319.268C392.277 320.675 389.746 322.574 387.636 324.965C385.666 327.356 384.12 330.099 382.994 333.194C381.868 336.288 381.095 339.453 380.673 342.688H428.146ZM480.743 301.967C485.667 300.561 492.066 299.224 499.943 297.958C507.821 296.692 516.54 296.059 526.106 296.059C535.108 296.059 542.634 297.325 548.682 299.857C554.73 302.249 559.513 305.695 563.029 310.196C566.687 314.556 569.218 319.901 570.625 326.231C572.172 332.42 572.945 339.242 572.945 346.697V408.728H547.416V350.706C547.416 344.798 546.994 339.805 546.15 335.725C545.446 331.506 544.18 328.13 542.352 325.598C540.664 322.925 538.272 321.027 535.178 319.901C532.225 318.635 528.567 318.002 524.207 318.002C520.971 318.002 517.595 318.213 514.079 318.635C510.563 319.057 507.961 319.409 506.273 319.69V408.728H480.743V301.967ZM602.898 269.264L628.427 265.044V298.38H667.671V319.69H628.427V364.631C628.427 373.493 629.833 379.822 632.647 383.62C635.461 387.418 640.243 389.317 646.994 389.317C651.636 389.317 655.716 388.824 659.232 387.84C662.889 386.856 665.772 385.941 667.882 385.097L672.102 405.352C669.148 406.618 665.28 407.884 660.498 409.15C655.716 410.556 650.088 411.26 643.619 411.26C635.741 411.26 629.131 410.205 623.786 408.095C618.582 405.985 614.431 402.96 611.337 399.022C608.243 394.943 606.062 390.09 604.797 384.464C603.531 378.697 602.898 372.156 602.898 364.842V269.264ZM784.215 261.035C805.454 261.035 821.701 264.903 832.954 272.64C844.347 280.376 850.044 292.473 850.044 308.93C850.044 317.51 848.496 324.895 845.402 331.084C842.448 337.132 838.087 342.126 832.321 346.064C826.553 349.862 819.52 352.675 811.222 354.504C802.923 356.332 793.428 357.246 782.738 357.246H769.446V408.728H742.861V264.622C749.049 263.215 755.872 262.301 763.327 261.879C770.923 261.317 777.886 261.035 784.215 261.035ZM786.114 284.033C779.363 284.033 773.806 284.244 769.446 284.666V334.46H782.316C795.116 334.46 804.962 332.701 811.855 329.185C818.747 325.528 822.193 318.706 822.193 308.719C822.193 303.936 821.279 299.928 819.451 296.692C817.621 293.457 815.089 290.925 811.855 289.097C808.619 287.268 804.751 286.002 800.25 285.299C795.889 284.455 791.178 284.033 786.114 284.033ZM911.452 410.838C903.856 410.698 897.526 409.854 892.463 408.306C887.539 406.758 883.601 404.579 880.647 401.765C877.693 398.811 875.583 395.224 874.318 391.005C873.192 386.645 872.63 381.721 872.63 376.235V249.22L898.159 245V371.383C898.159 374.477 898.37 377.079 898.792 379.189C899.354 381.299 900.269 383.128 901.535 384.675C902.801 386.081 904.489 387.207 906.599 388.051C908.849 388.755 911.663 389.317 915.038 389.739L911.452 410.838ZM974.511 390.794C982.388 390.794 988.366 390.372 992.445 389.528V361.255C991.039 360.833 988.999 360.411 986.326 359.989C983.654 359.567 980.701 359.356 977.465 359.356C974.651 359.356 971.768 359.567 968.814 359.989C966.001 360.411 963.399 361.185 961.008 362.31C958.758 363.435 956.928 365.053 955.522 367.163C954.116 369.132 953.412 371.664 953.412 374.759C953.412 380.807 955.311 385.026 959.109 387.418C962.907 389.668 968.041 390.794 974.511 390.794ZM972.401 295.637C980.841 295.637 987.944 296.692 993.711 298.802C999.479 300.912 1004.05 303.866 1007.43 307.664C1010.94 311.462 1013.4 316.103 1014.81 321.589C1016.36 326.934 1017.13 332.842 1017.13 339.312V406.196C1013.19 407.04 1007.21 408.024 999.197 409.15C991.319 410.416 982.388 411.049 972.401 411.049C965.79 411.049 959.742 410.416 954.256 409.15C948.77 407.884 944.058 405.845 940.12 403.031C936.322 400.217 933.297 396.561 931.047 392.06C928.937 387.558 927.882 382.003 927.882 375.391C927.882 369.062 929.078 363.717 931.469 359.356C934.001 354.996 937.377 351.479 941.597 348.807C945.817 345.994 950.669 344.024 956.155 342.899C961.781 341.633 967.619 341 973.667 341C976.481 341 979.435 341.211 982.529 341.633C985.623 341.915 988.929 342.477 992.445 343.321V339.101C992.445 336.147 992.094 333.334 991.39 330.662C990.686 327.989 989.421 325.668 987.592 323.699C985.904 321.589 983.584 319.972 980.63 318.846C977.816 317.721 974.229 317.158 969.869 317.158C963.962 317.158 958.547 317.58 953.623 318.424C948.7 319.268 944.691 320.253 941.597 321.378L938.432 300.701C941.667 299.576 946.379 298.451 952.568 297.325C958.758 296.2 965.368 295.637 972.401 295.637ZM1048.39 301.967C1053.32 300.561 1059.72 299.224 1067.59 297.958C1075.47 296.692 1084.19 296.059 1093.76 296.059C1102.76 296.059 1110.29 297.325 1116.33 299.857C1122.38 302.249 1127.16 305.695 1130.68 310.196C1134.34 314.556 1136.87 319.901 1138.28 326.231C1139.82 332.42 1140.6 339.242 1140.6 346.697V408.728H1115.07V350.706C1115.07 344.798 1114.65 339.805 1113.8 335.725C1113.1 331.506 1111.83 328.13 1110 325.598C1108.32 322.925 1105.93 321.027 1102.83 319.901C1099.88 318.635 1096.22 318.002 1091.86 318.002C1088.62 318.002 1085.25 318.213 1081.73 318.635C1078.22 319.057 1075.61 319.409 1073.92 319.69V408.728H1048.39V301.967ZM1171.82 301.967C1176.74 300.561 1183.14 299.224 1191.02 297.958C1198.89 296.692 1207.61 296.059 1217.18 296.059C1226.18 296.059 1233.71 297.325 1239.75 299.857C1245.8 302.249 1250.59 305.695 1254.1 310.196C1257.76 314.556 1260.29 319.901 1261.7 326.231C1263.24 332.42 1264.02 339.242 1264.02 346.697V408.728H1238.49V350.706C1238.49 344.798 1238.07 339.805 1237.22 335.725C1236.52 331.506 1235.25 328.13 1233.42 325.598C1231.74 322.925 1229.35 321.027 1226.25 319.901C1223.3 318.635 1219.64 318.002 1215.28 318.002C1212.04 318.002 1208.67 318.213 1205.15 318.635C1201.64 319.057 1199.03 319.409 1197.35 319.69V408.728H1171.82V301.967ZM1289.12 354.082C1289.12 344.376 1290.52 335.866 1293.34 328.552C1296.29 321.238 1300.16 315.189 1304.94 310.407C1309.72 305.484 1315.21 301.827 1321.4 299.435C1327.59 296.903 1333.92 295.637 1340.39 295.637C1355.58 295.637 1367.39 300.35 1375.83 309.774C1384.41 319.198 1388.7 333.264 1388.7 351.972C1388.7 353.378 1388.63 354.996 1388.49 356.824C1388.49 358.512 1388.42 360.06 1388.28 361.466H1315.49C1316.19 370.328 1319.29 377.22 1324.77 382.143C1330.4 386.925 1338.49 389.317 1349.04 389.317C1355.23 389.317 1360.85 388.755 1365.92 387.629C1371.12 386.503 1375.2 385.308 1378.15 384.042L1381.53 404.93C1380.12 405.634 1378.15 406.407 1375.62 407.251C1373.23 407.955 1370.42 408.588 1367.18 409.15C1364.09 409.854 1360.71 410.416 1357.06 410.838C1353.4 411.26 1349.67 411.471 1345.87 411.471C1336.17 411.471 1327.73 410.065 1320.55 407.251C1313.38 404.297 1307.47 400.288 1302.83 395.225C1298.19 390.021 1294.74 383.971 1292.49 377.079C1290.24 370.046 1289.12 362.381 1289.12 354.082ZM1363.17 342.688C1363.17 339.172 1362.68 335.866 1361.7 332.772C1360.71 329.536 1359.24 326.794 1357.27 324.543C1355.44 322.152 1353.12 320.323 1350.3 319.057C1347.63 317.651 1344.4 316.947 1340.6 316.947C1336.66 316.947 1333.21 317.721 1330.26 319.268C1327.31 320.675 1324.77 322.574 1322.66 324.965C1320.7 327.356 1319.15 330.099 1318.02 333.194C1316.9 336.288 1316.12 339.453 1315.7 342.688H1363.17ZM1478.65 321.378C1476.54 320.675 1473.58 319.972 1469.79 319.268C1466.13 318.424 1461.84 318.002 1456.91 318.002C1454.1 318.002 1451.08 318.284 1447.84 318.846C1444.75 319.409 1442.57 319.901 1441.3 320.323V408.728H1415.77V303.655C1420.7 301.827 1426.81 300.139 1434.13 298.591C1441.58 296.903 1449.81 296.059 1458.81 296.059C1460.5 296.059 1462.47 296.2 1464.72 296.481C1466.97 296.622 1469.22 296.903 1471.47 297.325C1473.72 297.607 1475.9 298.029 1478.01 298.591C1480.12 299.013 1481.81 299.435 1483.08 299.857L1478.65 321.378Z" fill="#263147"/>
</svg>
